<svg width="32" height="32" viewBox="0 0 32 32" fill="none" xmlns="http://www.w3.org/2000/svg">
    <path fill-rule="evenodd" clip-rule="evenodd" d="M16 30.6667C7.8998 30.6667 1.33331 24.1002 1.33331 16C1.33331 7.89982 7.8998 1.33333 16 1.33333C24.1002 1.33333 30.6666 7.89982 30.6666 16C30.6666 24.1002 24.1002 30.6667 16 30.6667ZM25.866 22.8329C27.2115 20.8937 28 18.539 28 16C28 9.37258 22.6274 3.99999 16 3.99999C9.37257 3.99999 3.99998 9.37258 3.99998 16C3.99998 18.539 4.78849 20.8938 6.13399 22.8329C7.63459 20.8507 11.1608 20 16 20C20.8392 20 24.3654 20.8507 25.866 22.8329ZM23.9529 24.9863C23.5626 23.5831 20.7592 22.6667 16 22.6667C11.2408 22.6667 8.43732 23.5831 8.04708 24.9864C10.1644 26.8616 12.9492 28 16 28C19.0507 28 21.8356 26.8616 23.9529 24.9863ZM16 7.99999C12.7721 7.99999 10.6666 10.341 10.6666 13.3333C10.6666 17.9032 13.0145 20 16 20C18.9574 20 21.3333 17.9728 21.3333 13.6C21.3333 10.5621 19.2189 7.99999 16 7.99999ZM13.3333 13.3333C13.3333 16.359 14.4243 17.3333 16 17.3333C17.5703 17.3333 18.6666 16.3979 18.6666 13.6C18.6666 11.9339 17.6209 10.6667 16 10.6667C14.3116 10.6667 13.3333 11.7544 13.3333 13.3333Z" fill="black"/>
</svg>
