<svg width="25" height="24" viewBox="0 0 25 24" fill="none" xmlns="http://www.w3.org/2000/svg">
    <path fill-rule="evenodd" clip-rule="evenodd" d="M13 24C6.37258 24 1 18.6274 1 12C1 5.37258 6.37258 0 13 0C19.6274 0 25 5.37258 25 12C25 18.6274 19.6274 24 13 24ZM13 21.8181C18.4224 21.8181 22.8182 17.4224 22.8182 11.9999C22.8182 6.57751 18.4224 2.18176 13 2.18176C7.57757 2.18176 3.18182 6.57751 3.18182 11.9999C3.18182 17.4224 7.57757 21.8181 13 21.8181ZM13.3194 17.135L14.8622 15.5923L11.2699 12L14.8622 8.40777L13.3194 6.86499L8.18439 12L13.3194 17.135Z" fill="black"/>
</svg>
